<?xml version="1.0" standalone="no"?>
<!DOCTYPE svg PUBLIC "-//W3C//DTD SVG 20010904//EN"
 "http://www.w3.org/TR/2001/REC-SVG-20010904/DTD/svg10.dtd">
<svg version="1.0" xmlns="http://www.w3.org/2000/svg"
 width="527.000000pt" height="527.000000pt" viewBox="0 0 527.000000 527.000000"
 preserveAspectRatio="xMidYMid meet">
<metadata>
Created by potrace 1.14, written by Peter Selinger 2001-2017
</metadata>
<g transform="translate(0.000000,527.000000) scale(0.100000,-0.100000)"
fill="#000000" stroke="none">
<path d="M3542 4439 c-97 -38 -385 -53 -697 -36 -77 5 -151 10 -165 12 -100
12 -344 20 -620 20 -292 -1 -335 -3 -420 -22 -278 -61 -474 -194 -569 -385
-23 -48 -40 -92 -36 -98 3 -5 2 -10 -3 -10 -5 0 -8 -10 -8 -22 1 -13 0 -27 -2
-32 -3 -5 -6 -30 -7 -57 -2 -35 0 -47 9 -42 6 4 5 -1 -3 -10 -11 -14 -11 -17
0 -17 11 0 11 -2 -1 -10 -9 -6 -10 -10 -3 -10 7 0 10 -9 8 -22 -3 -12 2 -34 9
-50 11 -20 11 -28 3 -28 -7 0 -4 -5 6 -11 9 -6 15 -14 12 -19 -3 -5 -1 -11 5
-15 6 -4 8 -11 5 -16 -4 -5 -1 -9 5 -9 6 0 8 -4 5 -10 -3 -5 -1 -10 5 -10 5 0
18 -16 27 -35 9 -19 23 -35 30 -35 8 0 11 -4 8 -10 -3 -5 2 -10 11 -10 10 0
15 -3 11 -6 -7 -8 17 -34 31 -34 6 0 12 -3 14 -7 5 -13 78 -65 78 -56 0 4 4 4
8 -2 4 -5 18 -16 31 -23 19 -11 22 -11 15 0 -4 7 5 3 20 -10 16 -12 37 -22 47
-22 11 0 19 -4 19 -8 0 -5 6 -9 13 -10 15 -1 52 -10 52 -12 0 -1 16 -4 35 -7
19 -2 39 -9 44 -14 12 -11 97 -12 95 -1 -1 4 0 10 1 15 1 4 3 10 4 15 4 19 41
70 48 66 4 -3 8 0 8 6 0 25 66 69 93 62 4 -1 7 3 7 9 0 6 13 8 30 5 17 -2 28
0 25 5 -4 5 5 8 19 7 15 -1 26 -6 26 -11 0 -4 9 -3 19 3 11 5 21 6 23 1 2 -5
12 -11 23 -13 11 -1 26 -10 33 -18 12 -13 13 -13 7 0 -4 10 -2 9 8 -2 8 -10
18 -14 22 -10 5 4 5 2 2 -4 -4 -6 4 -20 18 -30 13 -10 22 -21 19 -26 -3 -4 -1
-8 5 -8 5 0 16 -13 24 -29 11 -22 12 -32 3 -42 -8 -9 -8 -10 2 -5 6 4 12 4 13
-1 4 -46 3 -63 -4 -63 -5 0 -5 -6 2 -13 8 -10 7 -17 -1 -25 -9 -9 -9 -12 1
-12 9 0 8 -5 -3 -16 -9 -8 -16 -24 -16 -35 0 -10 -5 -19 -12 -19 -6 0 -9 -3
-5 -6 8 -8 -66 -80 -102 -99 -17 -8 -31 -12 -31 -8 0 5 -5 0 -11 -10 -9 -15
-13 -16 -26 -6 -12 10 -16 10 -24 -2 -5 -8 -9 -9 -9 -4 0 6 -19 11 -42 12 -24
2 -44 7 -46 13 -2 6 -9 7 -14 4 -6 -4 -17 1 -25 11 -7 11 -13 15 -13 11 0 -5
-12 3 -26 18 -15 14 -31 26 -36 26 -5 0 -6 4 -3 10 3 5 -7 22 -22 37 -15 14
-22 23 -14 18 10 -5 12 -4 7 3 -5 8 -13 9 -25 2 -12 -6 -22 -5 -29 2 -8 8 -12
8 -12 2 0 -6 -7 -11 -15 -11 -8 0 -15 4 -15 9 0 5 -10 4 -21 -3 -16 -8 -20 -8
-14 1 6 9 2 9 -14 1 -16 -9 -21 -9 -21 0 0 8 -4 8 -15 -1 -11 -9 -19 -9 -28
-2 -7 6 -45 12 -85 14 -40 2 -72 6 -72 9 0 4 -9 9 -20 12 -11 3 -20 0 -20 -5
0 -6 -6 -5 -15 2 -8 7 -15 9 -15 5 0 -4 -6 -2 -14 4 -8 7 -28 13 -45 13 -17 1
-31 5 -31 10 0 4 -11 8 -25 8 -14 0 -25 5 -25 10 0 6 -3 9 -7 9 -8 -1 -12 0
-30 6 -5 2 -18 6 -30 10 -13 4 -23 12 -23 17 0 5 -4 6 -10 3 -5 -3 -10 -1 -10
5 0 6 -4 8 -10 5 -5 -3 -10 -1 -10 4 0 6 -7 11 -15 11 -9 0 -18 7 -21 15 -4 8
-13 15 -20 15 -8 0 -17 7 -20 15 -4 8 -10 15 -15 15 -15 0 -49 34 -49 48 0 7
-4 10 -10 7 -5 -3 -10 -1 -10 6 0 6 -10 20 -22 30 -11 11 -17 19 -13 19 5 0 0
7 -11 16 -10 8 -12 13 -4 9 9 -4 7 0 -4 9 -10 8 -15 19 -11 25 3 6 1 11 -6 11
-7 0 -9 3 -6 7 4 3 3 11 -2 17 -21 25 -38 181 -19 170 7 -5 8 -2 3 6 -6 10
-12 7 -26 -11 -10 -13 -19 -32 -19 -41 0 -9 -4 -20 -10 -23 -5 -3 -10 -15 -10
-26 0 -10 -5 -19 -11 -19 -6 0 -9 -7 -5 -15 3 -8 1 -15 -4 -15 -6 0 -9 -3 -9
-7 3 -20 -2 -34 -11 -28 -5 3 -7 0 -4 -9 3 -8 0 -25 -7 -38 -7 -13 -14 -34
-15 -48 -1 -14 -2 -27 -4 -30 -4 -10 -1 -83 5 -107 3 -15 2 -22 -4 -19 -5 3
-1 -16 9 -43 10 -28 15 -52 12 -55 -3 -3 0 -6 7 -6 7 0 10 -4 7 -8 -6 -10 33
-93 47 -103 5 -4 6 -13 2 -20 -5 -8 -5 -11 0 -7 4 4 20 -9 35 -30 15 -20 51
-57 79 -82 29 -25 59 -51 66 -57 7 -7 18 -13 24 -13 6 0 11 -4 11 -10 0 -5 6
-10 13 -10 8 0 22 -9 32 -20 10 -11 20 -18 23 -15 3 2 14 -1 26 -7 11 -7 24
-11 29 -10 4 1 7 -3 7 -9 0 -5 4 -7 10 -4 5 3 10 1 10 -5 0 -6 4 -9 9 -5 5 3
15 0 23 -7 7 -7 22 -14 33 -16 29 -4 38 -7 62 -20 28 -15 36 -15 27 1 -4 6 2
4 13 -5 23 -21 38 -24 27 -5 -6 9 -4 9 8 -1 9 -7 29 -15 45 -17 15 -2 28 -4
28 -5 0 -4 46 -11 92 -13 29 -1 53 -4 53 -7 0 -3 59 -5 130 -6 72 0 130 3 130
8 0 4 11 3 25 -2 17 -7 25 -6 25 1 0 8 4 8 14 0 9 -8 16 -8 20 -2 4 6 13 8 21
4 8 -3 15 -1 15 5 0 5 11 7 25 4 16 -3 25 0 25 8 0 9 3 10 13 1 8 -6 16 -8 19
-5 6 5 19 8 83 17 11 1 26 6 33 10 6 5 12 4 12 -2 0 -6 7 -8 15 -5 8 4 12 10
9 15 -7 13 19 7 28 -6 5 -6 8 -6 8 1 0 6 14 10 31 9 18 -1 33 4 36 11 3 8 9
11 14 8 6 -3 17 0 26 8 12 9 15 10 9 0 -6 -10 -2 -10 21 0 15 6 34 17 42 22
12 9 13 8 6 -4 -7 -13 -6 -13 7 -2 9 7 29 15 44 18 16 3 31 8 34 12 5 8 27 14
48 15 6 0 12 4 12 9 0 4 3 7 8 6 4 0 15 2 25 5 9 4 25 10 35 14 9 3 20 5 25 5
4 -1 7 3 7 9 0 5 4 8 9 5 5 -3 14 1 20 8 8 10 9 16 2 21 -12 7 -13 35 -8 143
0 6 4 12 8 12 4 0 6 11 5 24 -2 14 3 27 10 30 8 3 14 12 14 19 0 8 9 22 20 32
11 10 17 22 14 26 -3 5 -1 9 4 9 13 0 52 36 47 44 -3 3 -2 4 1 1 4 -2 16 1 28
7 11 7 24 11 29 10 4 -1 7 3 7 9 0 5 4 8 9 4 5 -3 13 0 16 6 4 5 13 8 21 5 8
-3 14 -1 14 5 0 6 4 7 10 4 5 -3 18 -1 29 5 13 7 22 7 26 0 4 -6 11 -8 16 -4
5 3 15 2 22 -3 7 -5 24 -9 40 -8 15 0 27 -3 27 -7 0 -4 9 -8 20 -8 11 0 20 -5
20 -11 0 -5 4 -8 9 -5 5 3 12 -1 15 -10 4 -9 9 -14 12 -11 4 3 18 -8 33 -25
14 -17 35 -40 47 -52 11 -12 19 -27 16 -34 -2 -7 2 -12 8 -12 7 0 10 -7 6 -15
-3 -8 -2 -15 2 -15 19 0 20 -163 2 -185 -10 -12 -10 -15 1 -15 10 0 11 -2 2
-8 -7 -4 -21 -28 -32 -52 -11 -25 -21 -41 -21 -35 0 5 -7 -1 -16 -13 -8 -12
-20 -20 -25 -17 -5 4 -6 -2 -2 -11 5 -13 3 -16 -10 -11 -11 4 -18 -1 -22 -14
-6 -17 -9 -18 -23 -7 -12 10 -14 10 -8 1 4 -8 1 -13 -8 -13 -9 0 -16 -4 -16
-9 0 -5 -9 -7 -20 -4 -11 3 -20 0 -20 -6 0 -7 -13 -10 -35 -8 -21 3 -35 0 -35
-7 0 -6 -5 -4 -10 4 -6 9 -10 11 -10 3 0 -14 -31 -6 -42 11 -5 7 -8 6 -8 -3 0
-11 -3 -11 -15 -1 -8 6 -19 9 -25 5 -5 -3 -10 -1 -10 5 0 6 -4 8 -10 5 -5 -3
-10 -2 -10 4 0 10 -39 27 -53 23 -5 -1 -6 2 -3 7 6 10 -23 26 -39 22 -9 -3
-34 -8 -45 -10 -3 -1 2 -6 10 -11 12 -8 9 -10 -12 -10 -16 0 -28 -4 -28 -10 0
-5 -6 -10 -14 -10 -8 0 -21 -6 -28 -14 -15 -14 -58 -31 -71 -28 -5 1 -6 -2 -2
-8 5 -9 -1 -12 -21 -9 -4 0 -10 -4 -13 -9 -7 -11 -103 -57 -113 -54 -5 1 -8
-2 -8 -7 0 -8 -39 -22 -51 -18 -3 1 -13 -6 -22 -15 -10 -9 -26 -15 -37 -13
-11 2 -18 0 -15 -6 4 -5 -2 -9 -12 -9 -10 0 -29 -7 -41 -16 -12 -8 -22 -12
-22 -7 0 4 -5 1 -10 -7 -9 -13 -10 -13 -10 0 0 10 -3 11 -8 3 -6 -10 -150 -57
-212 -69 -14 -3 -41 -9 -60 -14 -35 -9 -59 -14 -134 -25 -21 -4 -47 -8 -58
-10 -32 -7 -209 -18 -283 -18 -91 0 -185 9 -277 28 -94 19 -220 65 -280 102
-21 13 -41 23 -46 23 -4 0 -15 8 -24 18 -38 38 -55 52 -67 52 -7 0 -9 5 -6 10
3 6 -1 10 -10 10 -9 0 -13 5 -10 10 3 6 1 10 -5 10 -6 0 -8 5 -4 12 4 7 3 8
-4 4 -8 -5 -9 -13 -2 -25 5 -10 6 -21 3 -25 -3 -3 -1 -6 5 -6 6 0 9 -7 6 -15
-4 -8 -1 -15 5 -15 6 0 11 -9 11 -20 0 -11 21 -63 47 -117 41 -84 61 -111 138
-188 161 -161 360 -250 630 -282 77 -9 333 -10 405 -1 126 16 244 37 313 56
20 6 38 7 41 4 3 -3 6 6 7 19 3 96 65 193 142 220 20 7 37 18 37 24 0 5 5 3
10 -5 6 -9 10 -10 10 -3 0 16 107 8 156 -13 43 -18 96 -72 119 -121 43 -89 23
-202 -48 -277 -51 -55 -101 -74 -188 -71 -66 1 -136 30 -168 69 -11 13 -19 13
-64 -5 -29 -11 -67 -27 -86 -36 -18 -8 -39 -16 -45 -18 -6 -1 -24 -8 -41 -14
-16 -7 -37 -14 -45 -16 -8 -2 -40 -10 -70 -19 -170 -49 -364 -70 -482 -52 -21
3 -38 1 -38 -4 0 -6 3 -9 8 -8 4 1 21 -4 37 -11 148 -59 290 -101 392 -117 21
-3 49 -7 63 -10 14 -2 50 -6 80 -9 30 -3 75 -7 100 -10 56 -6 200 -6 259 -1
124 12 168 17 191 21 14 2 41 6 61 9 20 3 47 10 60 15 13 5 27 9 32 9 18 1 77
15 137 33 36 10 68 18 73 18 4 1 21 8 37 16 17 9 30 13 30 11 0 -13 270 111
385 177 64 37 263 165 275 177 3 3 38 32 79 64 118 94 331 316 331 345 0 6 4
11 9 11 5 0 11 6 14 14 4 11 0 13 -16 10 -31 -5 -97 -16 -132 -20 -24 -3 -143
-4 -267 -3 -10 0 -18 5 -18 10 0 7 -6 7 -17 0 -12 -6 -26 -5 -46 6 -16 8 -27
11 -24 6 3 -5 -7 -7 -23 -5 -31 4 -49 29 -22 29 27 0 82 15 88 24 2 4 12 5 21
2 12 -5 14 -3 8 7 -6 10 -4 12 8 7 9 -3 19 -2 22 3 4 6 15 10 26 10 10 0 19 5
19 11 0 5 4 8 9 5 4 -3 69 25 142 62 235 119 394 246 545 432 77 95 175 243
179 270 1 3 14 32 29 65 53 113 100 262 112 358 3 23 9 58 13 77 9 46 15 290
6 290 -3 0 -25 -13 -48 -29 -113 -77 -200 -103 -356 -106 -68 -1 -144 2 -170
7 -25 5 -59 11 -76 14 -53 9 -79 14 -101 18 -12 2 -45 7 -75 11 -30 4 -56 8
-59 10 -17 10 -145 19 -275 19 -156 0 -186 -3 -315 -33 -33 -7 -48 -7 -55 2
-5 6 -6 9 -1 5 9 -8 105 55 151 100 46 44 115 126 130 155 25 48 50 92 55 97
17 15 71 172 58 169 -2 0 -13 -4 -26 -10z"/>
<path d="M1866 3245 c-8 -9 -19 -16 -23 -16 -4 -1 -7 -5 -5 -10 1 -5 -2 -9 -7
-9 -5 0 -12 -7 -15 -16 -4 -10 -2 -13 7 -8 9 6 9 4 1 -7 -9 -13 -11 -30 -4
-44 1 -3 3 -8 5 -12 7 -28 19 -41 31 -36 8 3 14 0 14 -7 0 -6 5 -8 10 -5 6 3
10 1 10 -5 0 -6 5 -8 13 -3 6 4 23 9 36 11 40 5 86 82 59 98 -4 3 -8 13 -8 22
0 20 -45 57 -69 57 -9 0 -22 -4 -30 -10 -11 -7 -13 -7 -7 3 10 17 1 15 -18 -3z"/>
<path d="M2792 3065 c-26 -14 -67 -55 -67 -68 0 -4 -7 -12 -15 -17 -11 -7 -12
-10 -2 -10 10 0 10 -4 -2 -16 -17 -17 -21 -34 -7 -34 4 0 7 -13 5 -30 -2 -16
1 -30 7 -30 6 0 7 -4 4 -10 -7 -12 19 -53 28 -43 4 3 7 -1 7 -10 0 -10 7 -17
15 -17 8 0 15 -4 15 -10 0 -5 11 -10 24 -10 14 0 27 -4 30 -8 6 -11 36 -9 55
3 10 6 12 4 6 -6 -8 -12 -6 -12 8 -1 9 8 22 10 28 6 7 -4 9 -3 6 3 -4 6 1 17
10 24 14 12 16 12 9 -1 -5 -8 5 -1 21 15 33 34 47 62 44 89 -2 10 2 15 8 12 6
-4 7 4 1 25 -5 17 -9 34 -9 38 2 16 -14 50 -22 45 -5 -3 -9 -1 -9 4 0 5 -9 19
-20 32 -11 13 -20 20 -20 15 0 -4 -6 -2 -13 4 -8 6 -17 8 -20 4 -4 -3 -7 -2
-7 3 0 6 -18 11 -40 11 -27 0 -38 -3 -33 -11 5 -8 3 -8 -8 0 -10 8 -20 7 -37
-1z"/>
<path d="M2384 2012 c-43 -39 -50 -78 -23 -128 17 -33 68 -53 104 -41 31 10
64 42 66 61 0 6 2 18 4 27 5 26 -26 80 -52 90 -38 14 -78 11 -99 -9z"/>
<path d="M2506 1133 c-50 -17 -64 -29 -85 -72 -47 -98 10 -189 140 -222 27 -7
49 -17 49 -21 0 -5 4 -7 9 -3 5 3 13 -4 16 -16 20 -61 -86 -73 -138 -16 -17
20 -18 20 -54 1 -60 -31 -64 -36 -41 -72 50 -79 177 -109 270 -64 70 34 98 91
83 168 -5 30 -66 102 -77 93 -3 -2 -11 1 -19 8 -8 6 -40 21 -72 33 -40 15 -57
27 -57 39 0 43 54 49 94 12 20 -19 66 -20 66 -1 0 4 11 12 25 18 14 6 25 18
25 25 0 17 -58 77 -75 77 -7 0 -15 4 -17 10 -5 16 -100 18 -142 3z"/>
<path d="M296 1123 c-61 -18 -137 -93 -158 -155 -43 -126 27 -282 142 -319 19
-6 42 -13 50 -16 52 -20 156 9 218 61 56 48 58 62 12 91 -50 31 -58 31 -95 -3
-27 -24 -49 -33 -95 -36 -25 -1 -90 35 -107 60 -8 13 -16 46 -17 75 -3 48 0
55 34 89 63 63 128 63 199 1 17 -15 28 -18 35 -11 5 5 18 10 28 10 10 0 18 5
18 10 0 6 7 10 15 10 24 0 17 33 -14 66 -65 69 -170 96 -265 67z"/>
<path d="M660 1133 c-13 -3 -15 -38 -14 -246 l0 -242 35 -5 c19 -3 45 -4 59
-2 25 4 25 5 25 98 0 76 2 95 15 98 8 3 53 4 100 3 l85 -2 2 -55 c0 -30 2 -74
2 -98 l1 -43 58 3 57 3 0 245 0 244 -53 1 c-29 1 -56 -2 -60 -5 -4 -3 -7 -43
-7 -90 l0 -85 -95 -1 c-52 -1 -97 2 -100 7 -3 4 -5 44 -5 89 0 44 -2 80 -5 81
-16 3 -87 5 -100 2z"/>
<path d="M1179 1120 c-5 -106 -2 -473 5 -477 10 -6 295 -7 301 -1 8 7 11 88 4
99 -4 7 -40 13 -95 14 -49 1 -92 3 -95 3 -3 1 -3 19 0 40 l6 37 80 1 80 0 3
56 3 56 -73 0 c-95 0 -100 0 -93 11 3 5 1 12 -4 15 -5 3 -7 15 -4 26 5 18 14
20 92 21 47 1 89 1 94 0 4 0 7 24 7 54 0 30 -3 56 -7 56 -5 1 -74 2 -155 3
-126 1 -148 -1 -149 -14z"/>
<path d="M1527 1126 c-2 -6 4 -31 13 -56 10 -25 18 -48 19 -52 2 -12 12 -40
24 -73 7 -16 12 -32 13 -35 2 -18 29 -97 35 -105 4 -5 10 -23 13 -40 7 -40 29
-99 43 -116 7 -8 27 -13 50 -12 21 1 48 2 61 2 21 1 38 26 47 72 2 8 10 32 19
52 8 21 15 39 16 42 1 7 3 13 54 170 25 77 46 145 46 150 0 14 -106 13 -120
-1 -6 -6 -13 -18 -14 -25 -2 -8 -6 -21 -9 -29 -3 -8 -20 -60 -38 -115 -17 -55
-36 -106 -42 -113 -8 -10 -23 25 -60 135 -27 81 -51 150 -53 152 -10 10 -114
7 -117 -3z"/>
<path d="M2079 1124 c-6 -7 -12 -19 -13 -26 -2 -7 -7 -24 -13 -38 -6 -14 -29
-77 -52 -140 -23 -63 -55 -151 -71 -194 -16 -44 -28 -81 -26 -83 3 -4 59 -6
97 -4 21 1 30 9 43 41 14 37 19 40 53 41 21 0 59 1 85 2 46 2 47 1 59 -37 7
-21 22 -41 32 -45 17 -6 107 -4 114 3 3 2 -69 200 -87 241 -5 11 -25 67 -46
125 -20 58 -41 109 -45 114 -14 15 -117 15 -130 0z m98 -266 c5 -27 4 -29 -23
-24 -16 2 -34 5 -40 5 -8 1 -7 12 3 39 7 20 17 46 20 57 6 17 8 16 20 -14 8
-18 17 -46 20 -63z"/>
<path d="M3019 1129 c-10 -6 -14 -179 -10 -449 l1 -45 47 2 c27 1 53 2 58 2 7
1 11 27 10 64 0 34 3 69 7 78 12 26 54 20 69 -10 13 -24 69 -121 76 -130 1 -2
30 -4 63 -4 59 0 84 8 65 21 -6 4 -21 30 -35 57 -13 28 -27 52 -30 55 -3 3
-10 16 -17 31 -9 21 -8 28 7 40 82 68 70 205 -23 267 -34 23 -48 25 -157 27
-66 1 -125 -2 -131 -6z m237 -126 c37 -49 4 -90 -73 -91 -56 0 -55 -1 -55 58
0 50 0 50 58 50 42 0 60 -4 70 -17z"/>
<path d="M3461 1132 c-8 -3 -11 -75 -11 -248 l0 -244 33 -1 c34 -1 228 -1 262
0 18 1 21 7 20 49 0 62 -8 73 -44 62 -16 -4 -32 -6 -35 -2 -3 3 -30 6 -59 6
l-52 1 -3 41 -3 41 63 0 c126 1 115 -4 114 56 -1 35 -6 51 -14 50 -7 -2 -12 2
-12 8 0 7 -5 8 -12 2 -10 -7 -81 -9 -126 -4 -5 1 -9 17 -10 36 l-1 35 72 1
c129 2 120 -2 122 52 2 26 -2 50 -9 54 -11 7 -275 12 -295 5z"/>
<path d="M4000 1133 c-8 -3 -22 -7 -30 -10 -8 -4 -18 -7 -21 -7 -22 -3 -82
-58 -110 -100 -30 -45 -34 -59 -35 -124 -3 -130 74 -231 196 -258 110 -24 232
31 281 128 21 41 37 147 22 149 -51 7 -263 2 -266 -6 -2 -5 -3 -30 -3 -55 l1
-45 58 -3 c31 -2 57 -6 57 -10 0 -10 -41 -35 -65 -40 -11 -2 -26 -5 -34 -6
-20 -4 -72 23 -98 51 -73 76 -10 218 95 215 62 -2 71 -5 93 -28 l21 -22 43 31
c24 18 44 37 44 43 1 17 -51 62 -94 80 -39 16 -124 25 -155 17z"/>
<path d="M4512 1125 c-6 -8 -57 -150 -66 -180 -2 -5 -9 -23 -15 -40 -7 -16
-19 -48 -26 -70 -30 -87 -61 -171 -68 -182 -9 -15 -4 -16 67 -14 57 1 71 10
80 51 6 31 8 32 91 32 83 0 90 -2 103 -29 6 -15 12 -33 12 -40 0 -7 10 -14 23
-14 34 -2 100 1 104 5 4 4 -3 23 -56 166 -18 47 -33 90 -35 97 -1 7 -5 16 -9
19 -4 4 -7 13 -7 19 0 7 -8 30 -17 51 -9 22 -17 41 -18 44 -14 54 -27 90 -33
91 -39 6 -125 3 -130 -6z m93 -237 c8 -28 15 -52 15 -53 0 -4 -70 1 -74 6 -8
8 24 99 35 99 4 0 15 -23 24 -52z"/>
<path d="M4863 888 l1 -248 40 -1 c198 -4 266 -3 267 6 7 59 4 98 -9 103 -9 3
-52 6 -96 6 l-81 1 -2 160 c-1 88 -2 174 -3 190 0 30 0 30 -59 30 l-58 0 0
-247z"/>
</g>
</svg>
